<?xml version="1.0" encoding="UTF-8"?>
<svg version="1.1" viewBox="0 0 1600 1600" width="1280" height="1280" xmlns="http://www.w3.org/2000/svg">
<path transform="translate(703,496)" d="m0 0c-0.51 4.44-2.16 6.63-5 10l-1 3h-2c-0.29 0.58-0.58 1.15-0.88 1.75-1.04 2.08-2.08 4.17-3.12 6.25h-2v2h-2v2h-2l-1 4h-2v2h-2v2h-2v2h-2v3h-2v2c-2.03 2.33-3.86 3.92-6.56 5.44-2.84 1.82-3.8 3.67-5.44 6.56h-2v2h-2v2h-2c-0.27 0.91-0.54 1.82-0.81 2.75-1.09 2.98-2.05 4.94-4.19 7.25h-2l-2 9h-2v2h-2v4h-2c0.05 0.73 0.1 1.47 0.15 2.22-0.17 3.13-0.9 4.58-2.53 7.22-3.36 5.77-4.81 10.8-5.28 17.4-0.34 2.15-0.34 2.15-1.27 3.95-8.81 18.1-3.96 43.4-1.07 62.2h2v10h2c0.25 1.01 0.5 2.02 0.75 3.06 0.97 3.41 2.41 6.16 4.23 9.17 2.14 3.72 3.66 7.7 5.02 11.8h2c0.99 3.47 0.99 3.47 2 7h2l2 6h2c0.95 1.36 1.9 2.74 2.79 4.14 1.36 2.09 2.8 4.1 4.27 6.11 0.49 0.67 0.97 1.33 1.48 2.02 1.53 1.98 1.53 1.98 4.46 3.73v3h2v2c0.95 0.21 1.9 0.41 2.88 0.62 3.12 1.38 3.12 1.38 4.5 4.5 0.2 0.95 0.41 1.9 0.62 2.88h4v2h2c2.12 1.88 2.12 1.88 4 4v2c0.56 0.27 1.11 0.54 1.69 0.81 2.52 1.3 4.95 2.61 7.31 4.19v2c1.98 0.66 3.96 1.32 6 2v2h2v2h2v2h4v2h2v2h3v2h3v2c0.72-0.1 1.44-0.21 2.19-0.31 3.96 0.44 5.1 2.47 7.81 5.31 2.27 1.49 4.59 2.73 7 4v2c0.91 0.29 1.82 0.58 2.75 0.88 2.57 0.89 4.86 1.83 7.25 3.12v2c1.98 0.66 3.96 1.32 6 2v2h4v2h5v2h2v2h4v2h4v2c0.87 0.18 0.87 0.18 1.76 0.37 2.27 0.64 3.99 1.48 6.03 2.66 0.69 0.4 1.39 0.8 2.1 1.21 0.72 0.41 1.43 0.83 2.17 1.26 1.43 0.83 2.86 1.65 4.29 2.47 0.63 0.36 1.26 0.73 1.9 1.11 1.9 1.06 1.9 1.06 4.75 1.92v2c0.95 0.14 1.9 0.29 2.88 0.44 3.12 0.56 3.12 0.56 5.12 1.56v2c0.57 0.13 1.14 0.25 1.73 0.38 6.02 1.64 11.7 4.78 17.3 7.62v2c1.67 0.33 3.33 0.67 5 1s3.33 0.67 5 1v2h2v2c0.89 0.21 0.89 0.21 1.79 0.43 9.46 2.44 18.7 7.22 27 12.2 2.12 1.26 3.81 1.87 6.22 2.32v2h5v2h4v2h2v2h4v2h4v2c0.95 0.12 1.9 0.25 2.88 0.38 3.12 0.62 3.12 0.62 5.12 2.62 2.07 0.64 2.07 0.64 4 1v2c0.7 0.08 1.4 0.16 2.12 0.25 3.55 0.92 5.84 2.72 8.88 4.75 2.64 1.13 5.28 2.06 8 3v2l4 1v2h4v2c0.7 0.1 1.4 0.21 2.12 0.31 3.27 0.78 5.93 2.11 8.88 3.69v2h4v2h4v2h2v2c0.52 0.08 1.03 0.16 1.56 0.25 5.66 1.74 10.7 5.52 15.7 8.63 5.81 3.59 11.7 6.93 17.8 10.1v2h2v2h4v2h3v2c0.64 0.1 1.28 0.21 1.94 0.31 1.02 0.34 1.02 0.34 2.06 0.69l1 3c1.89 0.68 1.89 0.68 4 1 0.99 0.33 1.98 0.66 3 1v2h2v2c0.54 0.27 1.07 0.54 1.62 0.81 2.8 1.4 5.59 2.79 8.38 4.19v2h2v2c1.98 0.66 3.96 1.32 6 2v2h2v2h2v2h3v2l7-2v-2c0.99-0.33 1.98-0.66 3-1v3h4v6h2v4h2v7c0.93 0.34 0.93 0.34 1.88 0.69 2.76 1.71 3.02 3.31 4.12 6.31 0.98 1.02 1.98 2.02 3 3v2h2l1 4h2c3 3.46 3 3.46 3 6h2c2 3 2 3 2 6h2v2h2l2 7h2v2h2v4h2c0.24 0.63 0.48 1.26 0.73 1.91 2.62 6.67 5.57 13 9.02 19.3 1.28 2.88 1.52 4.69 1.25 7.81h2c0.17 0.84 0.17 0.84 0.34 1.7 0.5 2.54 1.02 5.07 1.54 7.61 0.17 0.88 0.34 1.76 0.52 2.67 0.18 0.85 0.35 1.7 0.53 2.57 0.16 0.78 0.31 1.56 0.48 2.37 0.55 2.36 0.55 2.36 2.59 5.08 0.38 2.63 0.38 2.63 0.56 5.56 0.18 3.87 0.18 3.87 1.44 7.44 0.09 2.48 0.12 4.93 0.1 7.41 0 0.73-0.01 1.46-0.01 2.22 0 2.33-0.01 4.66-0.03 6.99 0 1.59-0.01 3.17-0.01 4.75-0.01 3.87-0.03 7.75-0.05 11.6h2v3h2v3h2v7h2c0.15 1.67 0.15 1.67 0.31 3.38 0.23 1.19 0.46 2.39 0.69 3.62l3 2c2.05 4.1 2.93 8.56 4 13l1 3 2 1c0.41 2.32 0.74 4.66 1 7h5c0.13-0.92 0.27-1.83 0.4-2.77 0.18-1.19 0.36-2.38 0.54-3.61 0.17-1.18 0.35-2.36 0.52-3.58 0.54-3.04 0.54-3.04 1.54-5.04 0.18-2.82 0.33-5.62 0.44-8.44 0.28-6.06 0.84-11.8 2.09-17.8 0.82-4.86 0.98-9.79 1.22-14.7 0.25-3.09 0.25-3.09 1.25-5.09h2v2h2c1.5 3.37 2 5.2 2 9h2v6h2c0.19 1.7 0.19 1.7 0.38 3.44 0.2 1.17 0.41 2.35 0.62 3.56l2 1c0.85 1.93 0.85 1.93 1.62 4.31 0.27 0.78 0.53 1.56 0.79 2.37 0.59 2.32 0.59 2.32 0.59 6.32h2c2.45 4.43 3.88 8.77 5.16 13.6 0.73 2.45 0.73 2.45 2.43 4.42 1.41 1.95 1.41 1.95 1.41 5.95h2c1.19 3.88 2 6.92 2 11h2v2h2c0.27 1.02 0.53 2.04 0.8 3.09 1.07 3.71 2.58 7.03 4.32 10.5 0.3 0.59 0.6 1.19 0.91 1.79 2.65 5.17 5.52 10.2 8.48 15.2 2.49 4.23 2.49 4.23 2.49 6.44h2v2h2l2 7h2v2h2v4h2c2 3 2 3 2 6h2v2h2v2h2c1.54 1.89 2.97 3.77 4.38 5.75 2.19 3.03 4.25 5.88 6.91 8.52 1.71 1.73 1.71 1.73 1.71 3.73 0.54 0.23 1.07 0.45 1.62 0.69 3.2 1.77 5.67 3.85 8.38 6.31v2c1.98 0.66 3.96 1.32 6 2v2h2v2h4v2c0.52 0.1 1.03 0.21 1.56 0.31 2.53 0.71 4.86 1.68 7.25 2.74 3.69 1.6 7.41 3.13 11.1 4.67 2.08 0.87 4.14 1.8 6.17 2.78 5.13 2.2 10.6 3.02 16.1 4.06 2.14 0.42 4.28 0.83 6.42 1.26 0.94 0.18 1.88 0.36 2.84 0.54 2.43 0.61 4.37 1.43 6.55 2.64v2h-2v2h-22v-2h-257v-2h2v-2c1.11-0.53 1.11-0.53 2.24-1.07 6.49-3.16 12.6-6.59 18.6-10.6 2.18-1.32 2.18-1.32 4.18-1.32v-2h2v-2h4v-2h3l1-4h3v-2h3v-2h2v-2l5-2v-2h2v-2l4-1v-2h2v-3c1.88-2.19 1.88-2.19 4-4h2v-3h2v-2h2v-2h2v-2h2l1-4h2l2-8h-2l-1-11h-2v-2h-2v-2l-4-2v-2h-2v-2h-6v-2h-8v2h-2l-2 6h-2c-0.39 0.86-0.39 0.86-0.8 1.73-2.19 4.13-5.27 7.64-8.2 11.3-0.85 1.06-0.85 1.06-1.72 2.14-1.38 1.66-2.82 3.27-4.28 4.86h-2v3h-2v2h-4v2h-2v2h-2v2c-1.65 1.02-3.32 2.02-5 3-1.03 0.86-2.05 1.74-3.06 2.62-2.56 2.07-3.77 3.01-6.94 3.38v2h-2v2h-4v2h-4v2h-2v2h-2v2h-4v2h-5v2h-2v2c-3.23 2.15-4.28 2.2-8 2v2h-4v2c-0.56 0.21-1.12 0.42-1.7 0.63-6.56 2.52-12.8 5.55-19 8.78-4.41 2.12-8.53 3.7-13.4 4.03-3.9 0.56-5.02 1.09-7.88 3.56-3.08 1.54-5.86 2.17-9.25 2.56-3.54 0.02-3.54 0.02-4.75 1.44-2.67 0.14-5.32 0.04-8 0v2c-1.49 0.15-1.49 0.15-3 0.31-2.82 0.39-5.19 1.09-7.81 2.19-4 1.61-7.8 2.01-12.1 2.29-2.16 0.09-2.16 0.09-4.1 1.21-1.56 0.13-3.12 0.2-4.68 0.25-0.93 0.03-1.86 0.06-2.81 0.1-1.96 0.06-3.92 0.11-5.88 0.17-1.39 0.05-1.39 0.05-2.81 0.1-1.28 0.04-1.28 0.04-2.58 0.08-2.52 0.17-2.52 0.17-5.24 2.3-2.19 0.38-2.19 0.38-4.56 0.56-3.35 0.25-3.35 0.25-6.44 1.44-1.81 0.14-3.63 0.23-5.45 0.28-1.1 0.04-2.19 0.08-3.32 0.11-1.15 0.04-2.3 0.07-3.48 0.11-2.26 0.07-4.51 0.14-6.77 0.22-1 0.03-2 0.06-3.04 0.09-2.94 0.13-2.94 0.13-5.78 0.69-2.96 0.47-5.71 0.63-8.7 0.63-1.06 0-2.13 0.01-3.22 0.01-1.13 0-2.26-0.01-3.43-0.01s-2.35 0-3.56 0.01c-2.48 0-4.96-0.01-7.44-0.01-3.8 0-7.59 0-11.4 0.01-2.41 0-4.83-0.01-7.24-0.01-1.13 0-2.27 0.01-3.43 0.01-1.06 0-2.12-0.01-3.22-0.01h-2.81c-2.97-0.14-5.8-0.61-8.73-1.13-2.09-0.11-4.19-0.18-6.28-0.21-1.17-0.03-2.34-0.06-3.55-0.09-2.45-0.05-4.89-0.09-7.34-0.13-1.17-0.03-2.34-0.06-3.55-0.09-1.06-0.02-2.12-0.04-3.22-0.06-3.51-0.48-5.99-1.69-9.06-3.42v-2c-0.64-0.31-1.28-0.62-1.94-0.94-2.06-1.06-2.06-1.06-3.06-2.06-0.04-1.67-0.04-3.33 0-5h7v2h16v2c1.28 0.12 2.56 0.25 3.88 0.38 2.41 0.23 4.76 0.54 7.13 1.09 7.09 1.63 13.9 1.81 21.2 1.76h3.71c2.56 0 5.13-0.01 7.7-0.02 3.95-0.02 7.89-0.02 11.8-0.02 2.5-0.01 5-0.02 7.5-0.02 1.18 0 2.36 0 3.58-0.01 1.63 0 1.63 0 3.3-0.01 0.96-0.01 1.92-0.01 2.91-0.02 2.33 0.02 2.33 0.02 4.3-1.13 2.59-0.31 5.18-0.51 7.79-0.72 2.18-0.05 2.18-0.05 3.21-1.28 2-0.04 4-0.04 6 0v-2c0.99-0.06 1.97-0.12 2.99-0.18 1.28-0.09 2.56-0.17 3.89-0.26 1.27-0.08 2.55-0.16 3.86-0.24 3.14-0.11 3.14-0.11 5.26-1.32 1.79-0.1 3.58-0.18 5.38-0.25 5.84-0.44 10.4-2.01 15.7-4.43 2.8-1.26 5.6-2.31 8.5-3.32 4.8-1.7 9.37-3.75 14-5.89 2.76-1.25 5.56-2.25 8.46-3.11v-2h4v-2h4v-2c1.98-0.66 3.96-1.32 6-2v-2h2v-2h4v-2c3.66-4.2 8.04-6.61 13-9v-2h2v-2h2v-2h2v-2h2v-2h2v-2h2l1-4h2c0.27-0.54 0.54-1.07 0.81-1.62 1.4-2.8 2.79-5.59 4.19-8.38h2c0.41-1.11 0.41-1.11 0.82-2.24 1.11-2.61 2.34-4.6 3.99-6.88 3.43-5 5.84-10.3 8.19-15.9h2v-4h2v-8h2c0.14-0.74 0.29-1.49 0.44-2.25 0.46-2.27 0.98-4.51 1.56-6.75h2c-0.01-0.85-0.01-0.85-0.02-1.71-0.02-2.56-0.03-5.11-0.04-7.67-0.01-0.88-0.02-1.77-0.03-2.69 0-1.28 0-1.28-0.01-2.58-0.01-1.18-0.01-1.18-0.01-2.38 0.11-1.97 0.11-1.97 1.11-3.97 0.1-2.69 0.14-5.35 0.13-8.04 0-0.79 0-1.58 0.01-2.4 0-1.68-0.01-3.36-0.01-5.04 0-2.58 0-5.15 0.01-7.73 0-1.63-0.01-3.26-0.01-4.89 0.01-1.16 0.01-1.16 0.01-2.35 0.32-3.57 0.32-3.57-1.14-6.55-0.07-2.35-0.08-4.71-0.06-7.06 0.01-1.29 0.02-2.58 0.02-3.91 0.02-1.5 0.02-1.5 0.04-3.03h-2l-2-9h-2v-5h-2v-5h-2c-0.68-1.24-1.34-2.5-2-3.75-0.37-0.7-0.74-1.39-1.12-2.11-0.88-2.14-0.88-2.14-0.88-6.14h-2c-1.23-1.77-2.39-3.59-3.5-5.44-2.12-3.94-2.12-3.94-5.5-6.56-2.17-3.59-4.18-7.22-6-11h-2v-2h-2v-2h-2v-2h-2v-2h-2c-1.52-1.57-1.52-1.57-3.25-3.69-2.25-2.66-4.45-5.02-7.19-7.19-0.84-0.7-1.69-1.4-2.56-2.12v-2h-2v-2c-0.6-0.27-1.2-0.54-1.81-0.81-2.18-1.18-3.46-2.46-5.19-4.19-0.99-0.33-1.98-0.66-3-1v-2c-0.96-0.19-0.96-0.19-1.94-0.38-0.68-0.2-1.36-0.41-2.06-0.62l-1-2c-0.99-0.33-1.98-0.66-3-1v-2c-1.98-0.66-3.96-1.32-6-2v-2h-2v-2h-2v-2c-0.6-0.14-1.2-0.29-1.81-0.44-1.75-0.45-3.48-0.99-5.19-1.56v-2c-0.57-0.29-1.14-0.57-1.73-0.87-5.14-2.56-5.14-2.56-10.3-5.13v-2c-0.64-0.23-1.28-0.45-1.94-0.69-4.19-1.8-8.1-4.05-12.1-6.31v-2h-3v-2h-5v-2h-3v-2c-1.32-0.39-1.32-0.39-2.66-0.79-3.33-1.21-5.8-2.66-8.72-4.65-4.45-2.92-8.56-4.94-13.6-6.56v-2c-0.59-0.19-1.18-0.39-1.79-0.59-4.12-1.35-8.21-2.73-12.2-4.41v-2h-2v-2h-4v-2c-0.74-0.14-1.49-0.29-2.25-0.44-2.27-0.46-4.51-0.98-6.75-1.56v-2c-1.98-0.66-3.96-1.32-6-2v-2h-6v-2c-0.52-0.08-1.03-0.16-1.56-0.25-2.72-0.84-4.92-2.18-7.36-3.63-3.86-2.08-7.98-3.57-12.1-5.12v-2c-0.76-0.14-1.53-0.29-2.31-0.44-2.69-0.56-2.69-0.56-5.69-1.56v-2c-0.78-0.12-1.57-0.25-2.38-0.38-2.62-0.62-2.62-0.62-4.62-2.62-2.07-0.64-2.07-0.64-4-1v-2h-5v-2c-0.52-0.1-1.03-0.21-1.56-0.31-3.3-0.93-6.31-2.3-9.44-3.69v-2h-5l-1-3c-2.03-0.65-4.07-1.3-6.12-1.91-4.28-1.62-8.09-3.95-12-6.31-2.91-1.74-5.49-3.23-8.87-3.78v-2h-2v-2c-1.05-0.29-2.1-0.58-3.19-0.88-3.04-0.89-5.9-1.88-8.81-3.12v-2h-2v-2c-0.6-0.14-1.2-0.29-1.81-0.44-1.75-0.45-3.48-0.99-5.19-1.56v-2c-1.98-0.33-3.96-0.66-6-1v-2c-2.65-1.08-5.28-2.09-8-3v-2c-0.68-0.12-1.36-0.25-2.06-0.38-3.37-0.71-6.64-1.65-9.94-2.62l-1 2c-0.43-1.67-0.43-1.67-0.88-3.38-0.81-3.62-0.81-3.62-3.12-5.62-2.07-0.64-2.07-0.64-4-1v-2h-4v-2h-2v-2h-2v-2h-4v-2c-0.58-0.1-1.15-0.21-1.75-0.31-2.61-0.8-4.22-1.88-6.25-3.69v-2l-7-2v-3h-2v-2c-1.08-0.37-1.08-0.37-2.19-0.75-3.09-1.37-5.32-2.97-7.81-5.25v-2h-3v-2h-3v-2h-2v-2h-2v-2h-2v-2h-3c-1.38-1.63-2.71-3.3-4-5l-2-1v-2h-2v-3h-2v-2c-0.62-0.06-1.24-0.12-1.88-0.19-2.12-0.81-2.12-0.81-3.37-3.37-0.25-0.81-0.5-1.61-0.75-2.44h-2v-2h-3l-1-6h-2v-2h-3l-2-6h-2l-2-5h-2v-3h-2l-2-7h-2v-2h-2v-4h-2c-0.25-0.64-0.5-1.28-0.75-1.94-1-2.46-2.05-4.88-3.13-7.31-0.34-0.79-0.69-1.58-1.05-2.39-0.66-1.45-1.33-2.89-2.04-4.31-2.91-5.99-4.59-12.2-6.28-18.7-0.83-3.13-1.65-6.12-2.86-9.13-0.95-2.4-1.25-4.44-1.45-7-0.04-2.92-0.04-2.92-1.44-5.25-0.32-2.32-0.51-4.64-0.72-6.97-0.07-2.02-0.07-2.02-1.28-3.03-0.1-2.51-0.14-4.99-0.13-7.5 0-0.75 0-1.5-0.01-2.28 0-1.59 0.01-3.18 0.01-4.77 0-2.44 0-4.88-0.01-7.33 0-1.54 0.01-3.08 0.01-4.62 0-0.74-0.01-1.47-0.01-2.23 0.03-5.16 0.03-5.16 1.14-6.27 0.21-2 0.37-4 0.5-6 0.39-5.89 0.39-5.89 1.5-7 0.3-1.77 0.57-3.54 0.81-5.31 0.89-5.58 2.37-10.7 4.25-16 0.76-2.18 1.42-4.33 2-6.57 0.94-3.12 0.94-3.12 2.38-5.93 1.75-3.57 2.73-7.08 3.72-10.9 0.91-2.46 1.94-3.52 3.84-5.27 0.71-2.1 0.71-2.1 1-4h2v-5h2v-3h2v-2h2v-4h2v-4h3c0.25-0.54 0.5-1.08 0.75-1.64 1.53-2.89 3.34-5.46 5.25-8.11 0.7-0.98 1.4-1.97 2.12-2.98 0.62-0.75 1.24-1.5 1.88-2.27h2v-2h2v-2h2v-2h2v-2h2v-2h2v-2h2v-2c1.33-1.19 1.33-1.19 3.25-2.56 2.65-1.91 5.26-3.84 7.85-5.83 0.53-0.41 1.06-0.82 1.61-1.25l4.65-3.6c2.64-1.76 2.64-1.76 5.64-1.76v-2h2v-2h2v-2c1.27-0.67 2.54-1.34 3.81-2 0.71-0.37 1.42-0.74 2.15-1.12 2.04-0.88 2.04-0.88 5.04-0.88v-2c3-2 3-2 6-2v-2h4v-2c1.98-0.33 3.96-0.66 6-1v-2c1.25-0.51 2.5-1.01 3.75-1.5 0.7-0.28 1.39-0.56 2.11-0.84 2.14-0.66 2.14-0.66 6.14-0.66v-2c2.97-0.5 2.97-0.5 6-1v-2c0.81-0.18 1.62-0.36 2.45-0.55 1.6-0.38 1.6-0.38 3.24-0.76 1.05-0.25 2.11-0.49 3.2-0.74 3.1-0.95 5.4-2.19 8.11-3.95 3.62-1.76 6.88-2.24 10.9-2.65 2.94-0.49 5.53-1.55 8.26-2.73 1.86-0.62 1.86-0.62 5.86-0.62z"/>
<path transform="translate(823 296)" d="m0 0c1.19 0.01 2.38 0.02 3.6 0.03 0.92 0.01 1.83 0.02 2.78 0.03v2h2v6h2c1.31 3.62 2 6.1 2 10h2v6h2c0.4 1.49 0.4 1.49 0.81 3 2.4 8.39 5.87 16.5 9.26 24.6 2.27 5.44 3.8 10.6 4.93 16.4h2v8h2v5h2v6h2v3h2v7h2c0.26 1.01 0.53 2.02 0.81 3.06 0.87 3.06 2.02 5.87 3.33 8.77 1.59 4.03 2.7 8.22 3.89 12.4 0.77 2.89 0.77 2.89 2.97 4.79 0.12 3.13 0.12 3.13 0 6h2c0.32 0.92 0.65 1.84 0.98 2.78 0.44 1.23 0.88 2.46 1.33 3.72 0.23 0.65 0.45 1.29 0.69 1.95 1.19 3.33 2.4 6.64 3.68 9.93 1.4 3.85 2.39 7.63 3.32 11.6h2v5h2c0.08 0.99 0.16 1.98 0.24 3 0.54 3.77 1.93 6.63 3.71 9.96 1.35 2.64 2.34 5.35 3.33 8.13 0.65 1.73 1.39 3.42 2.15 5.1 1.46 3.32 2.47 6.72 3.5 10.2 1.4 4.67 3.05 8.97 5.13 13.4 1.44 3.49 2.27 7.11 3.13 10.8 0.86 2.66 2.11 4.28 3.81 6.48 0.18 2.75 0.18 2.75 0 5h2v7h2c1.25 2.91 2 4.8 2 8h2c0.23 1.2 0.23 1.2 0.48 2.42 1.69 8 4.18 15.1 7.52 22.6 0.94 2.17 1.88 4.33 2.81 6.5 0.42 0.96 0.84 1.92 1.27 2.91 0.92 2.59 0.92 2.59 0.92 6.59h2c0.1 1.03 0.2 2.06 0.31 3.13 0.68 3.83 1.86 6.47 3.69 9.87v2h2c0.1 0.97 0.2 1.94 0.31 2.94 0.63 4.55 2.13 8.76 3.69 13.1h2v6h2c0.43 1.58 0.43 1.58 0.87 3.19 1.24 4.19 2.77 8.03 4.56 12 1.28 2.93 2.19 5.87 3.07 8.94 0.8 2.78 1.5 4.88 3 7.37 1.92 3.22 2.73 6.5 3.74 10.1 0.73 2.55 0.73 2.55 2.26 5.34 1.86 3.81 2.82 7.66 3.85 11.8 0.43 2.24 0.43 2.24 1.65 3.29 0.04 1.67 0.04 3.34 0 5h2v3h2v6h2v7h2c2.63 4.93 4.52 9.59 6 15 0.71 1.62 1.42 3.24 2.15 4.85 1.12 2.84 1.93 5.73 2.78 8.65 1.09 3.64 2.1 6.92 4.13 10.1 2.22 3.87 3.14 7.5 4.13 11.8 0.86 2.71 2.08 4.32 3.81 6.55 0.18 2.75 0.18 2.75 0 5h2c0.1 1.05 0.2 2.11 0.31 3.19 0.67 3.73 1.68 5.68 3.69 8.81v3h2c1.29 4.12 2.26 7.67 2 12h2c0.35 1.04 0.35 1.04 0.71 2.1 1.07 3.11 2.15 6.23 3.22 9.34 0.38 1.09 0.75 2.18 1.13 3.3 0.36 1.03 0.72 2.07 1.09 3.13 0.33 0.96 0.66 1.92 1 2.91 0.65 2.16 0.65 2.16 1.85 3.22 0.04 1.67 0.04 3.34 0 5h2c0.24 0.99 0.49 1.98 0.74 3 0.81 2.86 1.88 5.37 3.26 8 1.86 3.58 3 7.08 4 11 0.37 1.32 0.74 2.63 1.12 3.94 0.43 1.52 0.43 1.52 0.88 3.06h2v6h2v7h2c0.43 1.39 0.43 1.39 0.87 2.82 1.01 3.28 1.01 3.28 3.13 6.18 0.6 2.22 1.13 4.45 1.62 6.69 0.39 1.77 0.39 1.77 0.79 3.57 0.19 0.91 0.39 1.81 0.59 2.74h2c0.34 1.12 0.69 2.24 1.05 3.4 0.46 1.47 0.92 2.94 1.38 4.42 0.23 0.73 0.46 1.47 0.7 2.23 0.93 2.99 1.87 5.98 2.87 8.95 0.66 0.33 1.31 0.66 2 1 1.31 3.88 2 6.89 2 11h2c1.76 3.09 2 4.24 2 8h2v7h2v6h2v2h2v6h2c-0.33 1.65-0.67 3.3-1 5-1-0.33-1.99-0.66-3-1v-2h-2v-2h-2v-2h-2v-2h-2c-1.45-1.5-1.45-1.5-3.13-3.56-3.17-3.76-6.57-6.89-10.4-9.99-0.75-0.72-0.75-0.72-1.5-1.45v-2c-1.99-0.66-3.97-1.32-6-2v-2h-2v-2h-2v-2h-2v-2c-0.77-0.29-1.53-0.57-2.32-0.87-2.68-1.13-2.68-1.13-5.68-3.13v-2c-1.66-0.66-3.3-1.32-5-2v-2h-2v-2c-1.99-0.66-3.97-1.32-6-2v-2h-2v-2l-4-1v-2h-4v-2c-0.58-0.1-1.16-0.2-1.76-0.31-2.6-0.8-4.22-1.88-6.24-3.69v-2h-3v-2h-4v-2h-2v-2l-8-2v-2h-2v-2h-2v-2h-4v-2c-0.73-0.1-1.45-0.21-2.2-0.32-3.06-0.74-5.09-1.87-7.74-3.55-3.62-2.25-7.21-4.3-11.1-6.13v-3c-0.91-0.14-1.82-0.29-2.76-0.44-2.46-0.42-4.83-0.91-7.24-1.56v-2c-0.89-0.29-1.78-0.57-2.69-0.87-2.82-0.96-5.57-2-8.31-3.13v-2h-4v-2c-1.99-0.66-3.97-1.32-6-2v-2c-0.81-0.04-1.61-0.08-2.44-0.12-4.87-1.2-8.73-3.67-12.6-6.88v-2h-2c-4-5.41-4-5.41-4-8h-2c-0.09-0.97-0.17-1.94-0.26-2.94-0.55-4.02-2.1-7.32-3.82-11-1.03-2.33-1.6-4.56-1.92-7.09h-2v-8h-2v-6h-2v-2h-2c-0.18-0.76-0.35-1.52-0.52-2.31-1.35-5.74-2.9-11-5.43-16.3-5.05-11.4-5.05-11.4-5.05-16.4h-2c-1.76-4.5-2.2-8.17-2-13h-2l-2-8h-2c-1.3-4.12-2.27-7.67-2-12h-2v-2h-2c-0.31-1.39-0.31-1.39-0.63-2.81-0.27-1.19-0.53-2.39-0.81-3.63-0.27-1.19-0.54-2.38-0.81-3.62-0.46-2.81-0.46-2.81-1.75-3.94-0.05-1.66-0.05-3.33 0-5h-2c-0.26-0.7-0.51-1.4-0.77-2.12-0.35-0.95-0.69-1.9-1.05-2.88-0.36-1-0.72-2-1.1-3.03-0.91-2.49-1.86-4.94-2.84-7.41-1.24-3.56-1.24-3.56-1.24-7.56h-2c-0.68-1.95-1.34-3.91-2-5.87-0.38-1.09-0.75-2.18-1.13-3.31-0.87-2.82-0.87-2.82-0.87-4.82h-2v-6h-2c-1.2-3.87-2-6.91-2-11h-2v-4h-2v-6h-2v-6h-2c-2.94-6.87-5.19-13.8-7-21h-2c-0.27-0.89-0.54-1.78-0.81-2.7-0.53-1.76-0.53-1.76-1.07-3.55-0.52-1.74-0.52-1.74-1.05-3.51-0.94-3.12-0.94-3.12-2.21-5.41-0.86-1.83-0.86-1.83-0.86-5.83h-2v-6h-2v-6h-2c-3.36-5.04-4.3-9.99-4-16h-2v-3h-2v-4h-2v-8h-2c-0.23-0.88-0.46-1.77-0.69-2.68-2.14-7.48-5.09-14.8-8.38-21.8-2.14-4.68-3.56-9.54-5.01-14.5-0.87-3-0.87-3-2.03-5.73-1.01-2.57-1.05-4.55-0.89-7.29h-2c-0.34-0.99-0.66-1.98-1-3l-5-1v2h-2v2h-2v8h-2c0.06 0.91 0.12 1.82 0.18 2.75-0.18 3.25-0.18 3.25-1.59 5.03-2.07 2.89-2.56 5.51-3.28 8.97-0.25 1.17-0.51 2.34-0.76 3.55-0.19 0.89-0.37 1.78-0.55 2.7h-2c-0.13 0.71-0.25 1.43-0.38 2.16-0.85 3.86-2.28 7.43-3.69 11.1-0.88 2.57-1.47 5.05-1.93 7.72h-2c-0.34 1.98-0.66 3.96-1 6h-2c-0.09 0.99-0.17 1.98-0.26 3-0.4 2.92-1.17 5.01-2.62 7.56-3.1 5.71-3.95 12.1-5.12 18.4h-2v2h-2v5h-2v6h-2c0.09 1.09 0.09 1.09 0.18 2.19-0.18 2.81-0.18 2.81-1.51 5-2.01 3.38-3.34 6.89-4.67 10.6-0.27 0.71-0.53 1.43-0.8 2.16-1.6 4.35-3.12 8.71-4.55 13.1-1.12 3.36-2.39 6.66-3.65 9.97h-2c0.04 0.68 0.08 1.36 0.12 2.06-0.15 3.54-1.07 6.58-2.12 9.94h-2v5h-2v3h-2c0.04 0.85 0.08 1.69 0.12 2.56-0.14 3.86-0.95 6.78-2.12 10.4h-2v2h-2v6h-2c0.07 1.07 0.07 1.07 0.15 2.15-0.18 3.35-1.13 5.47-2.59 8.48-1.35 2.79-2.58 5.43-3.56 8.37-2.26 0.38-2.26 0.38-5 0-4-4.97-4-4.97-4-8h-2v-4h-2c-4-6.75-4-6.75-4-9h-2v-4h-2c-0.06-2.04-0.1-4.08-0.13-6.12-0.02-1.14-0.05-2.28-0.07-3.45 0.2-3.49 0.94-6.18 2.2-9.43h2v-4h2l2-8h2v-8h2c0.65-2.31 1.32-4.62 2-7h2c-0.05-0.86-0.09-1.73-0.13-2.62 0.13-3.5 0.89-6.12 2.13-9.38h2c0.48-1.58 0.95-3.16 1.43-4.75 0.4-1.32 0.4-1.32 0.81-2.67 0.64-2.18 1.22-4.37 1.76-6.58h2c0.4-1.92 0.4-1.92 0.81-3.87 1.46-6.57 3.02-13.2 6.19-19.1h2v-6h2v-7h2v-4h2c0.65-3.3 1.32-6.6 2-10h2v-6h2c0.26-0.99 0.53-1.98 0.81-3 0.78-2.75 1.7-5.4 2.75-8.06 1.27-3.28 2-6.43 2.44-9.94h2c0.23-0.91 0.23-0.91 0.48-1.83 1.31-4.74 2.84-9.01 5.14-13.4 2.13-4.06 3.08-7.26 3.38-11.8h2v-6h2v-2h2v-6h2v-7h2c0.14-0.76 0.28-1.52 0.43-2.31 0.57-2.69 0.57-2.69 1.57-5.69h2c-0.06-0.84-0.12-1.67-0.18-2.54 0.2-4.02 1.41-7.19 2.99-10.8 0.55-1.33 1.1-2.66 1.65-3.98 0.76-1.81 0.76-1.81 1.54-3.65 1.56-3.95 3.01-7.86 4-12h2c0.49-2.97 0.49-2.97 1-6h2c-0.05-0.91-0.09-1.81-0.13-2.75 0.12-3.13 0.52-4.63 2.13-7.25h2v-6h2v-7h2v-6h2v-4h2v-4h2v-7h2c0.18-1.14 0.18-1.14 0.37-2.31 0.63-2.69 0.63-2.69 2.63-5.69 0.6-2.38 1.13-4.78 1.62-7.18 0.39-1.91 0.39-1.91 0.79-3.86 0.19-0.98 0.39-1.95 0.59-2.96h3c-0.11-0.91-0.21-1.81-0.32-2.75-0.04-6.77 3.64-13.7 7.32-19.2 0.38-1.65 0.72-3.32 1-5h2v-9h2v-3h2v-4h2c-0.05-1.03-0.09-2.06-0.13-3.12 0.12-3.75 0.77-6.41 2.13-9.88h2v-2h2c-0.09-1.07-0.17-2.14-0.26-3.25 0.26-3.75 0.26-3.75 2.13-6.12 3.73-2.86 6.08-2.74 10.8-2.69z"/>
<path transform="translate(593,864)" d="m0 0h4v2h3v2c0.87 0.42 0.87 0.42 1.75 0.85 5.52 2.82 10.4 6.26 15.2 10.2 1.66 1.01 3.33 2.01 5 3 2.28 1.56 4.55 3.12 6.82 4.7 2.1 1.25 3.79 1.86 6.18 2.3v2h2v2h2v2h4v2h4v2h2v2c0.87 0.19 0.87 0.19 1.77 0.39 7.48 2.04 14.3 6.94 20.9 10.9 4.69 2.79 9.45 5.33 14.4 7.71 1.33 0.67 2.67 1.33 4 2v2h3v2h4v2c1.98 0.66 3.96 1.32 6 2v2c1.98 0.66 3.96 1.32 6 2v1c-11.5-0.54-22.8-3.27-32.8-8.95-2.37-1.16-4.55-1.64-7.15-2.05v-2h-7v-2h-5v-2h-4v-2h-8v-2h-6v-2c-0.99-0.27-1.98-0.54-3-0.81-2.67-0.75-5.14-1.66-7.69-2.75-5.24-2.05-10.7-2.17-16.3-2.44v2h-2c-0.12 0.59-0.24 1.18-0.37 1.79-0.9 4.25-1.83 8.23-3.63 12.2h-2c-0.08 0.78-0.16 1.57-0.25 2.38-0.82 3.97-2.21 7.4-3.76 11.1-1.24 3.12-2.14 6.23-2.99 9.48h-2c-0.11 0.84-0.22 1.68-0.34 2.54-0.72 3.8-1.89 7.21-3.22 10.8-0.24 0.64-0.47 1.28-0.71 1.94-0.57 1.56-1.15 3.12-1.73 4.68h-2c0.06 1.27 0.06 1.27 0.12 2.56-0.14 3.86-0.95 6.78-2.12 10.4h-2v2h-2v6h-2v6h-2c0.09 1.11 0.09 1.11 0.19 2.25-0.19 2.75-0.19 2.75-1.59 4.61-1.77 2.37-2.48 4.32-3.35 7.14-0.33 1.04-0.67 2.08-1.01 3.15-0.19 0.59-0.38 1.19-0.57 1.8-1.38 4.24-2.84 8.46-4.29 12.7-0.46 1.34-0.46 1.34-0.92 2.7-0.29 0.84-0.58 1.67-0.87 2.53-0.39 1.13-0.39 1.13-0.78 2.28-0.81 1.87-0.81 1.87-2.81 3.87-0.65 2.57-0.65 2.57-1 5h-2c0.08 0.78 0.16 1.57 0.25 2.38-0.34 5-2.24 9.07-4.25 13.6h-2v6h-2c0.06 0.74 0.12 1.49 0.19 2.25-0.19 2.75-0.19 2.75-1.55 4.42-2.24 3.18-3.1 6.63-4.14 10.3-1.28 4.56-2.55 8.24-5.5 12-0.85 2.53-0.85 2.53-1.44 5.25-0.87 3.44-1.76 6.41-3.5 9.5-2.72 5.01-3.86 10.6-5.23 16-0.83 3.2-0.83 3.2-1.83 5.2h-2c0.01 0.71 0.02 1.42 0.04 2.15 0 0.92 0.01 1.84 0.02 2.79 0.02 1.37 0.02 1.37 0.04 2.77-0.1 2.29-0.1 2.29-1.1 3.29-0.14 1.33-0.23 2.66-0.28 4-0.04 0.8-0.08 1.61-0.11 2.44-0.04 0.84-0.07 1.69-0.11 2.56-0.07 1.67-0.14 3.33-0.22 5-0.03 0.74-0.06 1.49-0.09 2.25-0.19 1.75-0.19 1.75-1.19 2.75-0.1 2.65-0.14 5.28-0.13 7.94 0 0.79 0 1.59-0.01 2.41 0 1.68 0.01 3.37 0.01 5.05 0 2.59 0 5.18-0.01 7.76 0 1.64 0.01 3.27 0.01 4.9-0.01 1.17-0.01 1.17-0.01 2.36-0.32 3.59-0.32 3.59 1.14 6.58 0.27 3.42 0.45 6.84 0.61 10.3-0.15 3.67-0.15 3.67 1.39 6.73 0.12 1.24 0.25 2.47 0.38 3.75 0.41 3.76 1.57 6.05 3.62 9.25v4h2v4h2c0.24 0.65 0.48 1.3 0.73 1.98 2.26 5.94 2.26 5.94 5.46 11.4 1.62 2.34 2.38 3.84 2.81 6.62h2v3h2v2h2v2h2v2h2v2h2v2h2v2h2v2c0.76 0.14 1.53 0.29 2.31 0.44 2.69 0.56 2.69 0.56 5.69 1.56v2c0.68 0.27 1.36 0.54 2.06 0.81 2.12 0.86 4.23 1.76 6.32 2.69 3.53 1.46 6.93 2.52 10.6 3.5v2c0.97 0.1 1.94 0.21 2.94 0.31 5.74 0.82 11.2 2.46 16.1 5.69l-1 4h-20v-2c-1.48 0.14-2.96 0.29-4.44 0.44-0.82 0.08-1.64 0.16-2.49 0.24-2.06 0.11-2.06 0.11-3.07 1.32-1.85 0.09-3.71 0.11-5.57 0.1-1.12-0.01-2.25-0.01-3.4-0.01-1.78-0.01-1.78-0.01-3.59-0.03-1.19 0-2.38-0.01-3.6-0.01-2.95-0.01-5.89-0.03-8.84-0.05v-2c-2.46 0.14-4.92 0.29-7.38 0.44-0.69 0.04-1.39 0.08-2.11 0.12-3.88 0.18-3.88 0.18-7.51 1.44-2.21 0.12-4.43 0.18-6.64 0.21-0.69 0.01-1.38 0.02-2.09 0.03-2.32 0.03-4.63 0.05-6.94 0.08-1.65 0.02-3.29 0.04-4.93 0.06-4.46 0.06-8.91 0.11-13.4 0.15-2.79 0.03-5.57 0.06-8.36 0.1-45.2 0.51-90.3 0.94-135-0.07-0.91-0.02-1.82-0.04-2.75-0.06-2.47-0.05-4.93-0.12-7.4-0.18-0.71-0.02-1.42-0.04-2.16-0.05-4.76-0.15-4.76-0.15-5.88-1.27-1.55-0.1-3.1-0.13-4.66-0.13-1.41 0-1.41 0-2.84-0.01-0.99 0.01-1.98 0.01-3 0.02-0.99-0.01-1.98-0.01-3-0.02-1.41 0.01-1.41 0.01-2.84 0.01h-2.63c-2.03-0.09-2.03-0.09-3.03 1.13-2.53 0.07-5.03 0.09-7.56 0.06-0.71 0-1.42-0.01-2.16-0.01-1.76-0.01-3.52-0.03-5.28-0.05 0.24-1.84 0.24-1.84 1-4 1.82-1.38 1.82-1.38 4.12-2.56 0.81-0.42 1.62-0.84 2.45-1.27 3.11-1.5 6.25-2.84 9.43-4.17l1-1c1.01-0.12 2.02-0.25 3.06-0.38 3.05-0.48 5.1-0.99 7.88-2.12 4.02-1.61 7.75-2.12 12.1-2.5l1-3c1.13-0.14 2.27-0.29 3.44-0.44 3.37-0.17 3.37-0.17 4.56-1.56 2.33-0.04 4.67-0.04 7 0v-2h5l1-4h5v-2c0.66-0.24 1.33-0.48 2.01-0.73 5.01-1.91 8.9-3.73 13-7.27 1.71-0.98 3.43-1.97 5.16-2.92 1.98-1.16 3.8-2.46 5.65-3.83 3.19-2.25 3.19-2.25 5.19-2.25v-2h2v-2c1.98-0.66 3.96-1.32 6-2v-2h2v-2h2v-2h3v-2h2c0.23-0.58 0.45-1.15 0.69-1.75 1.66-2.85 3.7-4.25 6.31-6.25 3.01-2.8 5.43-5.16 7-9h2v-2h2v-2h2v-2h2v-4h2v-2h3l1-4h2c0.26-0.54 0.52-1.08 0.78-1.64 1.44-2.79 3.05-5.44 4.72-8.11 0.61-0.98 1.22-1.97 1.84-2.98 0.55-0.75 1.1-1.5 1.66-2.27h2c0.31-0.95 0.62-1.9 0.94-2.88 1.06-3.12 1.06-3.12 2.06-5.12h3v-4h2v-4h2v-3h2l2-5h2v-5h2c0.29-0.72 0.58-1.44 0.88-2.19 1.04-2.6 2.08-5.21 3.12-7.81h2v-4h2c0.17-0.56 0.34-1.11 0.52-1.69 1.71-5.41 3.83-10.3 6.48-15.3h2c0.14-0.72 0.29-1.44 0.44-2.19 0.52-2.6 1.04-5.21 1.56-7.81h2v-2h2v-4h2c-0.08-0.7-0.16-1.4-0.25-2.12 0.33-3.84 2.08-5.72 4.25-8.88 1.55-3.5 2.71-7.12 3.9-10.8 1.29-3.8 2.68-7.56 4.1-11.3 0.26-0.7 0.52-1.39 0.79-2.11 1.08-2.88 2.18-5.76 3.33-8.62 1.08-2.7 1.98-5.45 2.88-8.21h2c-0.04-0.91-0.08-1.82-0.12-2.75 0.12-3.13 0.51-4.64 2.12-7.25h2v-2h2c-0.04-1.03-0.08-2.06-0.12-3.12 0.12-3.75 0.77-6.42 2.12-9.88h2l2-8h2c-0.04-0.83-0.08-1.65-0.12-2.5 0.14-4.12 1.03-7.53 2.12-11.5h2c0.25-0.95 0.5-1.9 0.75-2.88 1.15-4.05 2.72-7.9 4.35-11.8 0.81-2.1 1.41-4.13 1.9-6.33h2c0.15-1.27 0.15-1.27 0.31-2.56 0.76-3.81 1.86-8.61 4.69-11.4 0.37-2.33 0.7-4.66 1-7h2v-6h2v-4h2v-4h2c-0.06-1.27-0.06-1.27-0.12-2.56 0.14-3.86 0.95-6.78 2.12-10.4h2c0.29-1.01 0.58-2.02 0.88-3.06 1.04-3.65 2.08-7.29 3.12-10.9h2c-0.06-1.18-0.06-1.18-0.12-2.38 0.12-2.62 0.12-2.62 2.12-4.62 0.72-1.96 1.38-3.94 2-5.94 1.08-3.48 1.96-6.01 4-9.06 0.39-2.32 0.73-4.66 1-7h2v-6h2v-6h2v-2h2v-5h2v-8h2v-2h2v-2z"/>
</svg>
