<svg xmlns="http://www.w3.org/2000/svg" xmlns:xlink="http://www.w3.org/1999/xlink" version="1.1" width="1000" height="1000" viewBox="0 0 1000 1000" xml:space="preserve">
<desc>Created with Fabric.js 3.5.0</desc>
<defs>
</defs>
<rect x="0" y="0" width="100%" height="100%" fill="#ffffff"/>
<g transform="matrix(0.6652 0 0 0.6652 438.04 500.0058)" id="574648">
<g style="" vector-effect="non-scaling-stroke">
		<g transform="matrix(1.5869 0 0 1.5869 -0.0037 127.719)" id="SVGRepo_iconCarrier">
<linearGradient id="SVGID_5" gradientUnits="userSpaceOnUse" gradientTransform="matrix(7.8769 0 0 -7.8769 364.0537 4969.6836)" x1="-57.9273" y1="601.4416" x2="63.1927" y2="570.0586">
<stop offset="1.2%" style="stop-color:rgb(224,179,134);stop-opacity: 1"/>
<stop offset="51.9%" style="stop-color:rgb(218,73,140);stop-opacity: 1"/>
<stop offset="100%" style="stop-color:rgb(150,20,132);stop-opacity: 1"/>
</linearGradient>
<path style="stroke: none; stroke-width: 1; stroke-dasharray: none; stroke-linecap: butt; stroke-dashoffset: 0; stroke-linejoin: miter; stroke-miterlimit: 4; is-custom-font: none; font-file-url: none; fill: url(#SVGID_5); fill-rule: nonzero; opacity: 1;" transform=" translate(-252.0615, -332.5445)" d="M 0 348.863 c 0 0 93.444 -98.816 235.339 -43.804 c 170.417 66.111 213.827 39.03 268.784 -11.154 c 0 0 -62.527 130.615 -244.894 63.724 C 64.614 286.249 0 348.863 0 348.863 z" stroke-linecap="round"/>
</g>
		<g transform="matrix(1.5869 0 0 1.5869 -196.2516 245.0009)" id="SVGRepo_iconCarrier">
<linearGradient id="SVGID_6" gradientUnits="userSpaceOnUse" gradientTransform="matrix(7.8769 0 0 -7.8769 364.0537 4969.6836)" x1="-52.182" y1="585.8056" x2="9.512" y2="569.8256">
<stop offset="0%" style="stop-color:rgb(41,211,218);stop-opacity: 1"/>
<stop offset="51.9%" style="stop-color:rgb(0,119,255);stop-opacity: 1"/>
<stop offset="99.9%" style="stop-color:rgb(6,64,147);stop-opacity: 1"/>
<stop offset="100%" style="stop-color:rgb(8,70,152);stop-opacity: 1"/>
</linearGradient>
<path style="stroke: none; stroke-width: 1; stroke-dasharray: none; stroke-linecap: butt; stroke-dashoffset: 0; stroke-linejoin: miter; stroke-miterlimit: 4; is-custom-font: none; font-file-url: none; fill: url(#SVGID_6); fill-rule: nonzero; opacity: 1;" transform=" translate(-128.394, -406.4499)" d="M 0 414.761 c 0 0 47.6 -50.334 119.879 -22.307 c 86.812 33.658 108.906 19.873 136.909 -5.687 c 0 0 -31.846 66.528 -124.739 32.461 C 32.91 382.867 0 414.761 0 414.761 z" stroke-linecap="round"/>
</g>
		<g transform="matrix(1.5869 0 0 1.5869 196.5138 -34.9543)" id="SVGRepo_iconCarrier">
<linearGradient id="SVGID_7" gradientUnits="userSpaceOnUse" gradientTransform="matrix(7.8769 0 0 -7.8769 364.0537 4969.6836)" x1="-7.1248" y1="602.2856" x2="23.8722" y2="600.2156">
<stop offset="0%" style="stop-color:rgb(41,211,218);stop-opacity: 1"/>
<stop offset="51.9%" style="stop-color:rgb(0,119,255);stop-opacity: 1"/>
<stop offset="99.9%" style="stop-color:rgb(6,64,147);stop-opacity: 1"/>
<stop offset="100%" style="stop-color:rgb(8,70,152);stop-opacity: 1"/>
</linearGradient>
<path style="stroke: none; stroke-width: 1; stroke-dasharray: none; stroke-linecap: butt; stroke-dashoffset: 0; stroke-linejoin: miter; stroke-miterlimit: 4; is-custom-font: none; font-file-url: none; fill: url(#SVGID_7); fill-rule: nonzero; opacity: 1;" transform=" translate(-375.8959, -230.0355)" d="M 433.373 297.592 c -5.616 -1.111 -55.65 -13.17 -54.493 -88.954 c 0.205 -13.391 1.52 -24.505 3.49 -35.698 c -36.005 -16.88 -63.141 -11.461 -63.37 -11.461 h -0.016 l 0 0 h -0.032 l 0.032 -1 c -0.055 0.323 -9.003 53.973 46.371 111.072 c 27.687 28.554 52.382 30.09 67.994 26.813 C 433.357 298.19 433.365 297.765 433.373 297.592 z" stroke-linecap="round"/>
</g>
		<g transform="matrix(1.5869 0 0 1.5869 294.0758 -109.5629)" id="SVGRepo_iconCarrier">
<linearGradient id="SVGID_8" gradientUnits="userSpaceOnUse" gradientTransform="matrix(7.8769 0 0 -7.8769 364.0537 4969.6836)" x1="17.8997" y1="628.8096" x2="2.5997" y2="587.7266">
<stop offset="1.2%" style="stop-color:rgb(224,179,134);stop-opacity: 1"/>
<stop offset="51.9%" style="stop-color:rgb(218,73,140);stop-opacity: 1"/>
<stop offset="100%" style="stop-color:rgb(150,20,132);stop-opacity: 1"/>
</linearGradient>
<path style="stroke: none; stroke-width: 1; stroke-dasharray: none; stroke-linecap: butt; stroke-dashoffset: 0; stroke-linejoin: miter; stroke-miterlimit: 4; is-custom-font: none; font-file-url: none; fill: url(#SVGID_8); fill-rule: nonzero; opacity: 1;" transform=" translate(-437.3749, -183.021)" d="M 437.169 75.21 v -0.024 V 75.21 v -0.024 V 75.21 c 0 0.197 -41.173 28.538 -53.201 96.705 c 14.966 7.034 30.649 17.629 47.419 33.894 c 44.355 43.008 23.773 79.029 20.212 84.582 c 0.039 0.158 -0.126 0.307 -0.079 0.465 c 16.455 -9.476 40.023 -31.547 39.243 -82.219 C 489.307 113.642 437.169 75.439 437.169 75.21 z" stroke-linecap="round"/>
</g>
</g>
</g>
<g transform="matrix(1 0 0 1 246.7607 450.7786)" style="" id="619343">
		
<path xml:space="preserve" font-family="Allura" font-size="120" font-style="italic" font-weight="normal" style="stroke: none; stroke-width: 1; stroke-dasharray: none; stroke-linecap: butt; stroke-dashoffset: 0; stroke-linejoin: miter; stroke-miterlimit: 4; is-custom-font: none; font-file-url: none; fill: rgb(219,101,138); fill-rule: nonzero; opacity: 1; white-space: pre;" d="M-148.02 40.70L-148.02 40.70Q-151.74 40.70-153.42 37.40Q-155.10 34.10-155.10 29.00Q-155.10 23.90-152.94 15.02L-152.94 15.02Q-157.14 14.66-167.22 13.34L-167.22 13.34Q-183.90 33.98-194.94 42.02L-194.94 42.02Q-204.42 49.10-214.62 49.10L-214.62 49.10Q-221.10 49.10-225.72 45.86Q-230.34 42.62-230.34 36.26L-230.34 36.26Q-230.34 35.06-229.74 34.04Q-229.14 33.02-228.54 33.50Q-227.94 33.98-227.94 36.26L-227.94 36.26Q-227.94 40.34-224.76 42.38Q-221.58 44.42-217.02 44.42L-217.02 44.42Q-207.18 44.42-197.64 38.00Q-188.10 31.58-171.66 12.86L-171.66 12.86Q-189.30 10.70-194.94 10.70L-194.94 10.70Q-210.18 10.70-213.78 20.66L-213.78 20.66Q-214.26 21.98-214.26 23.12Q-214.26 24.26-213.78 25.16Q-213.30 26.06-213.60 26.60Q-213.90 27.14-214.62 27.08Q-215.34 27.02-215.82 26.30L-215.82 26.30Q-217.14 24.02-217.14 21.86L-217.14 21.86Q-217.14 14.42-214.44 10.88Q-211.74 7.34-208.14 6.38L-208.14 6.38Q-203.82 5.18-198.06 5.18Q-192.30 5.18-169.02 9.74L-169.02 9.74Q-162.54 2.30-149.34-14.20Q-136.14-30.70-136.14-30.94L-136.14-30.94L-136.02-30.94Q-135.90-31.06-135.42-31.30L-135.42-31.30Q-132.54-32.98-129.18-32.98L-129.18-32.98Q-127.98-32.98-127.98-31.78L-127.98-31.78Q-127.98-31.66-128.10-31.48Q-128.22-31.30-128.34-31.00Q-128.46-30.70-128.58-30.46L-128.58-30.46Q-140.10-11.38-146.46 12.50L-146.46 12.50L-146.82 13.34L-143.82 13.46Q-142.86 13.58-140.40 13.58Q-137.94 13.58-135.18 12.44Q-132.42 11.30-131.64 9.98Q-130.86 8.66-130.26 9.38Q-129.66 10.10-130.14 10.94L-130.14 10.94Q-131.46 13.34-134.82 14.42L-134.82 14.42Q-137.70 15.62-140.52 15.62Q-143.34 15.62-144.18 15.62L-144.18 15.62L-147.42 15.50Q-149.70 25.94-149.70 32.12Q-149.70 38.30-146.34 38.30L-146.34 38.30Q-143.10 38.30-136.26 33.14Q-129.42 27.98-123.42 19.82L-123.42 19.82Q-123.06 19.34-122.46 19.58Q-121.86 19.82-121.86 20.18Q-121.86 20.54-122.04 21.08Q-122.22 21.62-123.90 23.78L-123.90 23.78Q-128.94 30.50-136.26 36.50L-136.26 36.50Q-141.54 40.70-148.02 40.70ZM-141.42-19.66L-141.42-19.66Q-141.30-19.90-141.12-20.32Q-140.94-20.74-140.82-20.98L-140.82-20.98Q-155.82-0.46-164.94 10.70L-164.94 10.70L-152.34 12.74Q-148.98-0.34-141.42-19.66Z"/><path xml:space="preserve" font-family="Allura" font-size="120" font-style="italic" font-weight="normal" style="stroke: none; stroke-width: 1; stroke-dasharray: none; stroke-linecap: butt; stroke-dashoffset: 0; stroke-linejoin: miter; stroke-miterlimit: 4; is-custom-font: none; font-file-url: none; fill: rgb(219,101,138); fill-rule: nonzero; opacity: 1; white-space: pre;" d="M-55.98 3.62L-55.98 3.62Q-53.22 3.62-53.22 6.56Q-53.22 9.50-55.98 14.66Q-58.74 19.82-60.06 23.06L-60.06 23.06Q-62.34 28.58-62.34 31.88Q-62.34 35.18-61.38 36.26L-61.38 36.26Q-59.58 38.18-56.46 36.44Q-53.34 34.70-47.76 29.72Q-42.18 24.74-38.82 19.94L-38.82 19.94Q-38.34 19.34-37.68 19.64Q-37.02 19.94-37.02 20.24Q-37.02 20.54-37.26 20.90L-37.26 20.90Q-39.06 24.14-43.74 29.18Q-48.42 34.22-52.74 37.28Q-57.06 40.34-61.26 40.34L-61.26 40.34Q-65.34 40.22-67.02 38.48Q-68.70 36.74-68.70 34.10Q-68.70 31.46-68.22 29.00Q-67.74 26.54-66.42 23.30L-66.42 23.30Q-64.26 18.14-62.64 15.26Q-61.02 12.38-61.02 11.48Q-61.02 10.58-61.98 10.58L-61.98 10.58Q-63.90 10.58-69.30 15.26L-69.30 15.26Q-73.02 18.74-80.28 28.40Q-87.54 38.06-88.50 38.66L-88.50 38.66Q-92.82 40.82-93.90 40.82Q-94.98 40.82-94.98 40.46Q-94.98 40.10-94.74 39.44Q-94.50 38.78-92.40 32.90Q-90.30 27.02-87.84 20.00Q-85.38 12.98-84.84 11.54Q-84.30 10.10-84.12 9.08Q-83.94 8.06-83.70 7.34Q-83.46 6.62-82.80 5.72Q-82.14 4.82-81.06 4.76Q-79.98 4.70-78.30 5.00Q-76.62 5.30-76.62 6.50L-76.62 6.50Q-76.62 7.34-77.94 10.16Q-79.26 12.98-85.50 29.54L-85.50 29.54Q-81.18 24.26-74.58 17.36Q-67.98 10.46-63.42 6.86L-63.42 6.86Q-58.86 3.62-55.98 3.62Z"/><path xml:space="preserve" font-family="Allura" font-size="120" font-style="italic" font-weight="normal" style="stroke: none; stroke-width: 1; stroke-dasharray: none; stroke-linecap: butt; stroke-dashoffset: 0; stroke-linejoin: miter; stroke-miterlimit: 4; is-custom-font: none; font-file-url: none; fill: rgb(219,101,138); fill-rule: nonzero; opacity: 1; white-space: pre;" d="M6.54 4.46L6.54 4.46Q9.54 4.46 10.14 6.38L10.14 6.38Q10.38 7.46 9.84 8.48Q9.30 9.50 9.06 10.10Q8.82 10.70 8.70 11.06L8.70 11.06Q8.10 12.26 7.50 13.34L7.50 13.34Q0.66 27.02 0.30 30.74L0.30 30.74Q0.18 31.82 0.18 33.50Q0.18 35.18 1.14 36.26L1.14 36.26Q2.82 38.18 5.94 36.50Q9.06 34.82 14.64 29.78Q20.22 24.74 23.70 19.94L23.70 19.94Q24.18 19.34 24.78 19.64Q25.38 19.94 25.38 20.24Q25.38 20.54 25.14 20.90L25.14 20.90Q23.34 24.14 18.66 29.18L18.66 29.18Q10.98 37.46 5.82 39.38L5.82 39.38Q2.82 40.46 0.78 40.46L0.78 40.46Q-4.02 40.46-5.58 35.90L-5.58 35.90Q-5.82 35.06-5.82 33.86L-5.82 33.86Q-5.82 29.66-1.98 21.14L-1.98 21.14Q-2.58 22.46-6.66 27.14L-6.66 27.14Q-7.74 28.34-8.34 27.14L-8.34 27.14Q-8.46 26.90-8.46 26.48Q-8.46 26.06-7.98 25.46L-7.98 25.46Q-2.10 18.14 1.26 13.10L1.26 13.10Q1.02 12.50 1.50 11.54L1.50 11.54Q3.90 4.82 5.70 4.46L5.70 4.46Q6.06 4.46 6.54 4.46ZM16.02-11.50L16.02-11.50L15.06-7.66Q15.06-6.58 13.50-4.18Q11.94-1.78 11.10-1.78L11.10-1.78Q5.94-1.78 5.94-4.30L5.94-4.30Q5.94-4.78 11.10-8.74L11.10-8.74L13.14-10.30Q15.06-11.98 15.54-11.98Q16.02-11.98 16.02-11.50Z"/><path xml:space="preserve" font-family="Allura" font-size="120" font-style="italic" font-weight="normal" style="stroke: none; stroke-width: 1; stroke-dasharray: none; stroke-linecap: butt; stroke-dashoffset: 0; stroke-linejoin: miter; stroke-miterlimit: 4; is-custom-font: none; font-file-url: none; fill: rgb(219,101,138); fill-rule: nonzero; opacity: 1; white-space: pre;" d="M63.54 38.66L63.54 38.66Q59.22 40.82 58.02 40.82Q56.82 40.82 56.82 40.46Q56.82 40.10 57 39.68Q57.18 39.26 58.68 35.18Q60.18 31.10 62.46 24.86Q64.74 18.62 66.42 14.42L66.42 14.42Q63.66 17.42 59.94 22.70L59.94 22.70Q59.34 23.54 58.32 23.18Q57.30 22.82 58.98 20.66L58.98 20.66Q62.94 15.86 68.94 6.86L68.94 6.86Q67.14 5.90 67.14 5.00Q67.14 4.10 67.38 3.62L67.38 3.62Q67.98 2.18 69.54 3.02L69.54 3.02Q70.26 3.26 70.50 3.26L70.50 3.26Q75.78-10.66 83.70-21.58L83.70-21.58Q88.02-27.70 92.70-30.52Q97.38-33.34 101.46-33.34L101.46-33.34Q104.34-33.34 106.98-31.96Q109.62-30.58 109.62-27.46L109.62-27.46Q109.62-21.46 99.30-10.06L99.30-10.06Q93.78-4.18 86.94 0.74Q80.10 5.66 74.82 7.94L74.82 7.94Q70.14 18.26 66.54 29.54L66.54 29.54L74.34 19.34Q74.22 18.26 74.22 17.06L74.22 17.06Q74.22 13.46 75.78 12.62L75.78 12.62Q76.62 12.26 76.86 14.06L76.86 14.06L77.34 15.74Q86.58 4.94 90.66 3.02L90.66 3.02Q92.58 2.06 94.14 2.06Q95.70 2.06 96.90 2.90Q98.10 3.74 98.10 4.70L98.10 4.70Q98.10 6.38 95.34 7.70L95.34 7.70Q82.14 14.06 77.94 18.50L77.94 18.50Q80.82 28.58 83.58 34.34Q86.34 40.10 92.28 47.30Q98.22 54.50 103.14 54.50L103.14 54.50Q107.22 54.50 106.50 50.90L106.50 50.90Q106.02 47.66 104.52 45.32Q103.02 42.98 104.22 42.98L104.22 42.98Q105.30 43.10 106.50 44.06L106.50 44.06Q107.22 44.90 108.18 47.00Q109.14 49.10 109.14 50.54L109.14 50.54Q109.02 53.90 105.90 55.82Q102.78 57.74 99.90 57.74L99.90 57.74Q94.26 57.74 88.86 52.16Q83.46 46.58 79.86 38.66Q76.26 30.74 74.82 22.46L74.82 22.46Q72.66 25.46 70.02 29.66L70.02 29.66Q64.62 37.94 63.54 38.66ZM102.78-20.62Q106.02-26.02 106.02-28.18Q106.02-30.34 104.22-30.34Q102.42-30.34 99.66-28.18L99.66-28.18Q91.98-22.30 86.70-14.80Q81.42-7.30 76.26 3.86L76.26 3.86Q87.42-1.30 96.54-11.74L96.54-11.74Q99.54-15.22 102.78-20.62Z"/><path xml:space="preserve" font-family="Allura" font-size="120" font-style="italic" font-weight="normal" style="stroke: none; stroke-width: 1; stroke-dasharray: none; stroke-linecap: butt; stroke-dashoffset: 0; stroke-linejoin: miter; stroke-miterlimit: 4; is-custom-font: none; font-file-url: none; fill: rgb(219,101,138); fill-rule: nonzero; opacity: 1; white-space: pre;" d="M162.90 2.78L162.90 2.78Q169.38 2.78 169.38 9.02L169.38 9.02Q169.38 12.26 167.58 14.30L167.58 14.30Q164.58 18.74 157.86 22.04Q151.14 25.34 146.46 25.70L146.46 25.70Q144.78 25.82 144.66 24.74L144.66 24.74Q144.54 24.26 144.96 24.14Q145.38 24.02 145.62 24.02L145.62 24.02Q148.38 23.78 152.70 21.38L152.70 21.38Q160.74 17.06 164.46 12.50L164.46 12.50Q166.02 10.34 166.02 8.36Q166.02 6.38 164.10 6.38L164.10 6.38Q162.54 6.38 159.90 7.70L159.90 7.70Q154.26 10.34 148.02 16.88Q141.78 23.42 139.86 29.66L139.86 29.66Q139.26 31.58 139.26 33.44Q139.26 35.30 140.82 36.98Q142.38 38.66 145.62 38.66L145.62 38.66Q149.22 38.66 153.90 36.74L153.90 36.74Q167.46 31.22 174.78 20.06L174.78 20.06Q175.50 19.10 176.10 19.70L176.10 19.70Q176.58 19.94 176.58 20.30Q176.58 20.66 176.22 21.14L176.22 21.14Q172.62 27.14 167.10 31.82L167.10 31.82Q156.42 40.94 146.34 40.94L146.34 40.94Q137.70 40.94 134.22 35.78L134.22 35.78Q132.90 33.74 132.90 30.86Q132.90 27.98 134.46 24.02L134.46 24.02Q137.46 17.18 147.30 9.98Q157.14 2.78 162.90 2.78Z"/><path xml:space="preserve" font-family="Allura" font-size="120" font-style="italic" font-weight="normal" style="stroke: none; stroke-width: 1; stroke-dasharray: none; stroke-linecap: butt; stroke-dashoffset: 0; stroke-linejoin: miter; stroke-miterlimit: 4; is-custom-font: none; font-file-url: none; fill: rgb(219,101,138); fill-rule: nonzero; opacity: 1; white-space: pre;" d="M226.98 4.22L228.54 4.10Q237.78 3.26 239.76 3.26Q241.74 3.26 241.74 3.86L241.74 3.86Q241.74 4.58 238.92 5.36Q236.10 6.14 225.18 7.34L225.18 7.34Q224.58 8.42 223.74 9.86L223.74 9.86Q221.94 12.74 221.82 13.34L221.82 13.34Q214.98 27.02 214.62 30.74L214.62 30.74Q214.50 31.82 214.50 33.50Q214.50 35.18 215.46 36.26L215.46 36.26Q217.14 38.18 220.26 36.50Q223.38 34.82 228.96 29.78Q234.54 24.74 238.02 19.94L238.02 19.94Q238.50 19.34 239.22 19.70L239.22 19.70Q241.02 20.54 232.98 29.18L232.98 29.18Q225.30 37.46 220.14 39.38L220.14 39.38Q217.14 40.46 215.10 40.46L215.10 40.46Q210.30 40.46 208.74 35.90L208.74 35.90Q208.50 35.06 208.50 33.86L208.50 33.86Q208.50 29.66 212.34 21.14L212.34 21.14Q211.74 22.46 207.66 27.14L207.66 27.14Q206.58 28.34 205.98 27.14L205.98 27.14Q205.86 26.90 205.86 26.48Q205.86 26.06 206.34 25.46L206.34 25.46Q212.22 18.14 215.58 13.10L215.58 13.10Q215.58 12.98 218.22 8.06L218.22 8.06Q217.02 8.30 215.76 8.30Q214.50 8.30 213.90 7.52Q213.30 6.74 213.78 5.66L213.78 5.66Q214.62 3.74 220.14 3.50L220.14 3.50Q220.26 3.26 220.62 3.26L220.62 3.26L226.62-7.90Q227.10-8.86 227.70-9.88Q228.30-10.90 228.60-11.44Q228.90-11.98 229.26-12.58Q229.62-13.18 229.86-13.42Q230.10-13.66 230.34-13.90L230.34-13.90Q230.82-14.62 233.16-14.62Q235.50-14.62 236.34-13.30L236.34-13.30Q236.70-12.82 236.70-11.68Q236.70-10.54 235.86-9.16Q235.02-7.78 234.06-7.18Q233.10-6.58 232.74-5.86L232.74-5.86L226.98 4.22Z"/></g>
<g transform="matrix(1 0 0 1 700.3357 673.0009)" style="" id="277992">
		
<path xml:space="preserve" font-family="Allura" font-size="120" font-style="italic" font-weight="normal" style="stroke: none; stroke-width: 1; stroke-dasharray: none; stroke-linecap: butt; stroke-dashoffset: 0; stroke-linejoin: miter; stroke-miterlimit: 4; is-custom-font: none; font-file-url: none; fill: rgb(2,123,254); fill-rule: nonzero; opacity: 1; white-space: pre;" d="M-183.12-25.66L-183.12-25.66Q-183.12-23.02-185.28-19.54L-185.28-19.54Q-187.08-16.30-189.30-15.10Q-191.52-13.90-191.52-15.34L-191.52-15.34Q-191.52-15.46-190.20-16.78L-190.20-16.78Q-186.24-20.50-186.24-22.90L-186.24-22.90Q-186.24-28.06-196.44-28.06L-196.44-28.06Q-200.76-28.06-207.84-26.44Q-214.92-24.82-221.52-21.22L-221.52-21.22Q-229.20-17.02-229.20-13.90L-229.20-13.90Q-229.20-11.38-224.52-9.10L-224.52-9.10Q-222-7.90-214.50-5.08Q-207-2.26-202.38-0.16Q-197.76 1.94-193.62 5.78Q-189.48 9.62-189.48 14.30Q-189.48 18.98-195 24.50L-195 24.50Q-203.40 32.54-216.84 37.88Q-230.28 43.22-239.88 43.22L-239.88 43.22Q-258.84 43.22-258.84 32.54Q-258.84 21.86-247.20 14.42L-247.20 14.42Q-237.60 7.82-227.04 7.82L-227.04 7.82Q-224.52 7.82-224.76 8.66L-224.76 8.66Q-225 9.50-228.36 9.56Q-231.72 9.62-237.00 11.84Q-242.28 14.06-246.84 18.26L-246.84 18.26Q-252.84 23.66-252.84 29.06L-252.84 29.06Q-252.84 32.42-249.60 35.06Q-246.36 37.70-237.24 37.70Q-228.12 37.70-219.24 34.82L-219.24 34.82Q-200.04 28.46-195.24 20.90L-195.24 20.90Q-193.32 18.14-193.32 16.22L-193.32 16.22Q-193.32 10.70-200.04 7.58L-200.04 7.58Q-207.84 3.98-221.88-0.70L-221.88-0.70Q-227.28-2.50-231.06-5.44Q-234.84-8.38-234.84-12.52Q-234.84-16.66-230.34-20.68Q-225.84-24.70-219.48-27.10L-219.48-27.10Q-205.80-32.26-196.32-32.26L-196.32-32.26Q-183.12-32.26-183.12-25.66Z"/><path xml:space="preserve" font-family="Allura" font-size="120" font-style="italic" font-weight="normal" style="stroke: none; stroke-width: 1; stroke-dasharray: none; stroke-linecap: butt; stroke-dashoffset: 0; stroke-linejoin: miter; stroke-miterlimit: 4; is-custom-font: none; font-file-url: none; fill: rgb(2,123,254); fill-rule: nonzero; opacity: 1; white-space: pre;" d="M-99.48 20.90Q-101.28 24.14-105.96 29.18Q-110.64 34.22-114.36 36.98L-114.36 36.98Q-119.16 40.46-124.80 40.46L-124.80 40.46Q-125.88 40.46-127.62 39.44Q-129.36 38.42-129.96 36.50Q-130.56 34.58-130.56 32.78L-130.56 32.78Q-130.56 26.54-128.16 20.42L-128.16 20.42Q-128.52 20.66-131.46 25.52Q-134.40 30.38-138.66 34.70Q-142.92 39.02-147.24 39.02L-147.24 39.02Q-149.28 39.02-151.92 37.94L-151.92 37.94Q-156.72 35.78-156.72 30.02L-156.72 30.02Q-156.72 22.94-151.86 15.44Q-147 7.94-145.68 7.46L-145.68 7.46Q-143.88 6.98-142.26 6.98Q-140.64 6.98-138.96 7.64Q-137.28 8.30-139.44 9.86L-139.44 9.86Q-147.72 17.42-151.20 26.66L-151.20 26.66Q-152.52 30.26-152.52 32.72Q-152.52 35.18-151.26 35.90Q-150 36.62-148.80 36.62L-148.80 36.62Q-145.92 36.62-140.94 32.60Q-135.96 28.58-127.20 15.86L-127.20 15.86Q-126 14.06-123 8.84Q-120 3.62-119.40 2.66L-119.40 2.66Q-117.48 2.66-114.90 3.56Q-112.32 4.46-113.16 5.90L-113.16 5.90Q-118.92 15.50-121.26 20.06Q-123.60 24.62-124.44 30.74L-124.44 30.74Q-124.56 31.82-124.56 33.50Q-124.56 35.18-123.60 36.26L-123.60 36.26Q-121.80 38.18-118.62 36.44Q-115.44 34.70-109.92 29.72Q-104.40 24.74-101.04 19.94L-101.04 19.94Q-100.56 19.34-99.90 19.64Q-99.24 19.94-99.24 20.24Q-99.24 20.54-99.48 20.90L-99.48 20.90Z"/><path xml:space="preserve" font-family="Allura" font-size="120" font-style="italic" font-weight="normal" style="stroke: none; stroke-width: 1; stroke-dasharray: none; stroke-linecap: butt; stroke-dashoffset: 0; stroke-linejoin: miter; stroke-miterlimit: 4; is-custom-font: none; font-file-url: none; fill: rgb(2,123,254); fill-rule: nonzero; opacity: 1; white-space: pre;" d="M-56.04 4.22L-54.48 4.10Q-45.24 3.26-43.26 3.26Q-41.28 3.26-41.28 3.86L-41.28 3.86Q-41.28 4.58-44.10 5.36Q-46.92 6.14-57.84 7.34L-57.84 7.34Q-58.44 8.42-59.28 9.86L-59.28 9.86Q-61.08 12.74-61.20 13.34L-61.20 13.34Q-68.04 27.02-68.40 30.74L-68.40 30.74Q-68.52 31.82-68.52 33.50Q-68.52 35.18-67.56 36.26L-67.56 36.26Q-65.88 38.18-62.76 36.50Q-59.64 34.82-54.06 29.78Q-48.48 24.74-45.00 19.94L-45.00 19.94Q-44.52 19.34-43.80 19.70L-43.80 19.70Q-42.00 20.54-50.04 29.18L-50.04 29.18Q-57.72 37.46-62.88 39.38L-62.88 39.38Q-65.88 40.46-67.92 40.46L-67.92 40.46Q-72.72 40.46-74.28 35.90L-74.28 35.90Q-74.52 35.06-74.52 33.86L-74.52 33.86Q-74.52 29.66-70.68 21.14L-70.68 21.14Q-71.28 22.46-75.36 27.14L-75.36 27.14Q-76.44 28.34-77.04 27.14L-77.04 27.14Q-77.16 26.90-77.16 26.48Q-77.16 26.06-76.68 25.46L-76.68 25.46Q-70.80 18.14-67.44 13.10L-67.44 13.10Q-67.44 12.98-64.80 8.06L-64.80 8.06Q-66 8.30-67.26 8.30Q-68.52 8.30-69.12 7.52Q-69.72 6.74-69.24 5.66L-69.24 5.66Q-68.40 3.74-62.88 3.50L-62.88 3.50Q-62.76 3.26-62.40 3.26L-62.40 3.26L-56.40-7.90Q-55.92-8.86-55.32-9.88Q-54.72-10.90-54.42-11.44Q-54.12-11.98-53.76-12.58Q-53.40-13.18-53.16-13.42Q-52.92-13.66-52.68-13.90L-52.68-13.90Q-52.20-14.62-49.86-14.62Q-47.52-14.62-46.68-13.30L-46.68-13.30Q-46.32-12.82-46.32-11.68Q-46.32-10.54-47.16-9.16Q-48-7.78-48.96-7.18Q-49.92-6.58-50.28-5.86L-50.28-5.86L-56.04 4.22Z"/><path xml:space="preserve" font-family="Allura" font-size="120" font-style="italic" font-weight="normal" style="stroke: none; stroke-width: 1; stroke-dasharray: none; stroke-linecap: butt; stroke-dashoffset: 0; stroke-linejoin: miter; stroke-miterlimit: 4; is-custom-font: none; font-file-url: none; fill: rgb(2,123,254); fill-rule: nonzero; opacity: 1; white-space: pre;" d="M-1.80 40.70L-1.80 40.70Q-7.92 40.70-7.92 33.32Q-7.92 25.94 2.64 15.14L2.64 15.14Q3.48 14.30 3.84 13.82L3.84 13.82L4.68 12.62Q6.36 10.34 6.24 9.74L6.24 9.74L5.88 8.66Q5.40 7.22 1.92 6.56Q-1.56 5.90-3.72 5.90L-3.72 5.90Q-14.52 21.14-16.20 23.30Q-17.88 25.46-18.48 25.10Q-19.08 24.74-19.08 24.26Q-19.08 23.78-18.36 22.82L-18.36 22.82Q-11.88 14.90-7.20 5.90L-7.20 5.90Q-8.64 5.66-9.36 4.88Q-10.08 4.10-9.48 2.24Q-8.88 0.38-5.82-2.74Q-2.76-5.86-0.48-6.94Q1.80-8.02 2.40-8.26Q3.00-8.50 3.72-8.50L3.72-8.50Q5.16-8.50 2.76-4.18L2.76-4.18L-1.92 3.26Q3.48 3.62 7.32 3.62L7.32 3.62L11.52 3.50Q13.56 3.50 14.52 4.04Q15.48 4.58 15.00 5.90L15.00 5.90Q14.16 8.18 10.80 12.02L10.80 12.02Q3.60 20.42-0.00 29.90L-0.00 29.90Q-0.84 32.18-0.84 33.86L-0.84 33.86Q-0.84 37.34 1.68 37.34L1.68 37.34Q2.52 37.34 4.86 36.02Q7.20 34.70 12.72 29.72Q18.24 24.74 21.60 19.94L21.60 19.94Q22.08 19.34 22.74 19.64Q23.40 19.94 23.40 20.24Q23.40 20.54 23.16 20.90L23.16 20.90Q21.36 24.14 16.68 29.18Q12.00 34.22 7.56 37.34L7.56 37.34Q3.24 40.70-1.80 40.70Z"/><path xml:space="preserve" font-family="Allura" font-size="120" font-style="italic" font-weight="normal" style="stroke: none; stroke-width: 1; stroke-dasharray: none; stroke-linecap: butt; stroke-dashoffset: 0; stroke-linejoin: miter; stroke-miterlimit: 4; is-custom-font: none; font-file-url: none; fill: rgb(2,123,254); fill-rule: nonzero; opacity: 1; white-space: pre;" d="M54.96 39.02L54.96 39.02Q53.04 39.02 50.82 37.88Q48.60 36.74 47.04 34.64Q45.48 32.54 45.48 30.14Q45.48 27.74 46.56 25.58L46.56 25.58Q48.96 20.54 54.30 15.80Q59.64 11.06 65.40 7.70Q71.16 4.34 74.52 3.50Q77.88 2.66 81.06 2.66Q84.24 2.66 86.52 4.28Q88.80 5.90 88.80 7.70L88.80 7.70Q88.80 8.30 88.68 8.42Q88.56 8.54 88.08 8.30L88.08 8.30Q86.64 6.02 82.14 6.02Q77.64 6.02 71.94 8.96Q66.24 11.90 61.20 16.34L61.20 16.34Q57 20.30 53.82 25.28Q50.64 30.26 50.64 32.54L50.64 32.54Q50.64 36.98 53.16 36.98Q55.68 36.98 60.84 32.90L60.84 32.90Q69.36 25.70 72.48 22.34L72.48 22.34Q83.52 10.46 84.36 10.46L84.36 10.46Q85.80 10.46 87.84 11.30Q89.88 12.14 89.16 13.34L89.16 13.34Q83.04 21.98 81.96 30.74L81.96 30.74Q81.84 31.82 81.84 33.50Q81.84 35.18 82.80 36.26L82.80 36.26Q84.60 38.18 87.72 36.50Q90.84 34.82 96.42 29.78Q102 24.74 105.36 19.94L105.36 19.94Q105.84 19.34 106.44 19.64Q107.04 19.94 107.04 20.18L107.04 20.18Q107.04 21.98 101.34 28.04Q95.64 34.10 92.64 36.26L92.64 36.26Q87 40.46 82.20 40.46L82.20 40.46Q77.64 40.46 76.08 35.90L76.08 35.90Q75.72 34.46 75.72 32.66L75.72 32.66Q75.72 27.26 78 21.26L78 21.26Q77.52 21.50 73.56 26.06Q69.60 30.62 64.38 34.82Q59.16 39.02 54.96 39.02Z"/><path xml:space="preserve" font-family="Allura" font-size="120" font-style="italic" font-weight="normal" style="stroke: none; stroke-width: 1; stroke-dasharray: none; stroke-linecap: butt; stroke-dashoffset: 0; stroke-linejoin: miter; stroke-miterlimit: 4; is-custom-font: none; font-file-url: none; fill: rgb(2,123,254); fill-rule: nonzero; opacity: 1; white-space: pre;" d="M150.66 7.70Q148.92 9.14 144.30 15.20Q139.68 21.26 137.94 25.94Q136.20 30.62 136.20 33.62Q136.20 36.62 138.78 36.62Q141.36 36.62 146.04 32.90L146.04 32.90Q153.60 26.66 163.08 9.74L163.08 9.74Q163.56 8.90 164.82 8.90Q166.08 8.90 168.30 9.56Q170.52 10.22 170.52 11.30L170.52 11.30Q170.52 11.66 170.28 12.02L170.28 12.02Q165.24 20.18 163.92 30.50L163.92 30.50Q163.44 33.98 165.12 36.14L165.12 36.14Q166.68 38.30 171.48 35.66L171.48 35.66Q178.92 31.94 185.10 24.02Q191.28 16.10 192.72 9.74L192.72 9.74Q193.20 8.42 193.20 6.86L193.20 6.86Q193.20 0.14 189.36-1.30L189.36-1.30Q188.28-1.78 186.96-1.60Q185.64-1.42 185.40-1.72Q185.16-2.02 185.28-2.38L185.28-2.38Q185.52-3.46 190.20-3.46L190.20-3.46Q198-3.46 198 4.58Q198 12.62 188.88 23.90L188.88 23.90Q183.12 30.74 175.32 36.50L175.32 36.50Q171 39.50 166.32 39.50L166.32 39.50Q160.20 39.50 158.76 34.94L158.76 34.94Q157.92 32.78 157.92 28.10Q157.92 23.42 159.12 20.42L159.12 20.42Q155.88 26.90 152.04 31.34Q148.20 35.78 145.50 37.40Q142.80 39.02 140.04 39.02L140.04 39.02Q135.24 39.02 133.32 36.44Q131.40 33.86 131.40 30.86L131.40 30.86Q131.40 26.90 133.14 22.28Q134.88 17.66 136.62 14.96Q138.36 12.26 141.18 8.48Q144 4.70 144.84 4.34L144.84 4.34Q146.64 3.86 148.26 3.86Q149.88 3.86 151.08 4.34Q152.28 4.82 152.34 5.54Q152.40 6.26 150.66 7.70Z"/><path xml:space="preserve" font-family="Allura" font-size="120" font-style="italic" font-weight="normal" style="stroke: none; stroke-width: 1; stroke-dasharray: none; stroke-linecap: butt; stroke-dashoffset: 0; stroke-linejoin: miter; stroke-miterlimit: 4; is-custom-font: none; font-file-url: none; fill: rgb(2,123,254); fill-rule: nonzero; opacity: 1; white-space: pre;" d="M254.76 2.78L254.76 2.78Q261.24 2.78 261.24 9.02L261.24 9.02Q261.24 12.26 259.44 14.30L259.44 14.30Q256.44 18.74 249.72 22.04Q243 25.34 238.32 25.70L238.32 25.70Q236.64 25.82 236.52 24.74L236.52 24.74Q236.40 24.26 236.82 24.14Q237.24 24.02 237.48 24.02L237.48 24.02Q240.24 23.78 244.56 21.38L244.56 21.38Q252.60 17.06 256.32 12.50L256.32 12.50Q257.88 10.34 257.88 8.36Q257.88 6.38 255.96 6.38L255.96 6.38Q254.40 6.38 251.76 7.70L251.76 7.70Q246.12 10.34 239.88 16.88Q233.64 23.42 231.72 29.66L231.72 29.66Q231.12 31.58 231.12 33.44Q231.12 35.30 232.68 36.98Q234.24 38.66 237.48 38.66L237.48 38.66Q241.08 38.66 245.76 36.74L245.76 36.74Q259.32 31.22 266.64 20.06L266.64 20.06Q267.36 19.10 267.96 19.70L267.96 19.70Q268.44 19.94 268.44 20.30Q268.44 20.66 268.08 21.14L268.08 21.14Q264.48 27.14 258.96 31.82L258.96 31.82Q248.28 40.94 238.20 40.94L238.20 40.94Q229.56 40.94 226.08 35.78L226.08 35.78Q224.76 33.74 224.76 30.86Q224.76 27.98 226.32 24.02L226.32 24.02Q229.32 17.18 239.16 9.98Q249 2.78 254.76 2.78Z"/></g>
</svg>